<svg id="Layer_1" data-name="Layer 1" xmlns="http://www.w3.org/2000/svg" viewBox="0 0 436.21 95.66"><defs><style>.cls-1{fill:#0c0c23;}.cls-2{fill:#fff;}.cls-3{fill:#fc81cb;}</style></defs><path class="cls-1" d="M436.21,54.26a16.66,16.66,0,0,1-1.56,7,.49.49,0,0,1,0,.11c-5.18,12.5-20.09,15.85-20.09,15.85-2.28.56-5.08-.56-4.36-3.13a6.19,6.19,0,0,0-.25-5.36c-4.65-7.42-12.2.33-20,3.18-8.77,3.19-16.47,2.13-22.76-1.74a2,2,0,0,0-3,1.48c-1.91,15.33-11.22,24-26.19,24a25.48,25.48,0,0,1-12.27-3.09s-17.42-9.22-21-14.7A1.92,1.92,0,0,0,303,77H181.2a2.09,2.09,0,0,1-1-.27l-7.31-4.27a1,1,0,0,0-1.44.52l-1,2.71A2,2,0,0,1,168.57,77H130.08a2.1,2.1,0,0,1-1.06-.3l-11.17-7a2,2,0,0,0-2.6.42c-2.14,2.53-7.87,7.6-19.16,7.63-9.07,0-21-8.31-21-8.31a1,1,0,0,0-1.52.85V75a2,2,0,0,1-2,2H53.83a2.12,2.12,0,0,1-1-.27l-11.1-6.49a2,2,0,0,1-1-1.73V55.82a2,2,0,0,0-2-2H35.06a2,2,0,0,0-2,2V75a2,2,0,0,1-2,2H13.12a2.12,2.12,0,0,1-1-.27L1,70.26a2,2,0,0,1-1-1.73v-64a2,2,0,0,1,2-2H60.42a2,2,0,0,1,1,.27L72.55,9.32a2,2,0,0,1,1,1.73v9.62a.5.5,0,0,0,.68.47,27.59,27.59,0,0,1,19.92.5l.32.14L95,22l3.64,1.65a.51.51,0,0,0,.72-.46.63.63,0,0,0,0-.19,2,2,0,0,1,1.87-2.7h19l6.12,3.58a1,1,0,0,0,1.45-.54l.59-1.69a2,2,0,0,1,1.89-1.35H145L151.28,24a1,1,0,0,0,1.45-.54l.62-1.78a2,2,0,0,1,1.89-1.34h32.82a1.66,1.66,0,0,0,.49-.07,22.21,22.21,0,0,1,5.53-.73A18.74,18.74,0,0,1,205.51,23a1,1,0,0,0,1.2,0,19.9,19.9,0,0,1,11.69-3.54,20.5,20.5,0,0,1,11.89,3.42h0l4.62,2.69a2,2,0,0,0,3-1.73V22.32a2,2,0,0,1,2-2,.49.49,0,0,0,.32-.86,11,11,0,0,1-3.76-8.26A11.37,11.37,0,0,1,248,0a11.8,11.8,0,0,1,5.83,1.52L265.92,8.6a11,11,0,0,1,6.1,10,1.76,1.76,0,0,0,1.78,1.74h3a8.26,8.26,0,0,0,2-.26,20.21,20.21,0,0,1,4.54-.54,20.78,20.78,0,0,1,10.77,2.75v0l10.8,6.34a1,1,0,0,0,1.28-.23,24.34,24.34,0,0,1,19.08-8.82,23.69,23.69,0,0,1,6.67,1h19.5a2,2,0,0,1,1,.26l6.13,3.41a1,1,0,0,0,1-.07,25.91,25.91,0,0,1,15-4.57,26.38,26.38,0,0,1,13.78,3.75A28.22,28.22,0,0,1,399.41,37a1.82,1.82,0,0,0,2.34,1c11.74-4.44,23.31.4,23.31.4l0,0A16.75,16.75,0,0,1,436.21,54.26Z"/><path class="cls-2" d="M374.48,25.53c-10.56,0-19.44,7.52-19.44,19.36s8.88,19.6,19.44,19.6,19.6-7.76,19.6-19.6S385.12,25.53,374.48,25.53Zm0,31c-6.16,0-11.28-4.56-11.28-11.6a12.9,12.9,0,0,1,.23-2.45,1,1,0,0,1,1.76-.43,5.73,5.73,0,0,0,9.19-6.82,1,1,0,0,1,.86-1.57,11,11,0,0,1,10.6,11.27C385.84,51.93,380.72,56.49,374.48,56.49Z"/><path class="cls-2" d="M37.72,8.57H7a1,1,0,0,0-1,1V62.69a1,1,0,0,0,1,1h6.48a1,1,0,0,0,1-1V41.49a1,1,0,0,1,1-1h17.2a1,1,0,0,0,1-1V33.73a1,1,0,0,0-1-1H15.48a1,1,0,0,1-1-1V17.41a1,1,0,0,1,1-1H37.72a1,1,0,0,0,1-1V9.57A1,1,0,0,0,37.72,8.57Z"/><rect class="cls-2" x="46.72" y="8.58" width="8.24" height="55.12" rx="1"/><path class="cls-2" d="M83.52,25.53c-10.56,0-19.44,7.52-19.44,19.36S73,64.49,83.52,64.49s19.6-7.76,19.6-19.6S94.16,25.53,83.52,25.53Zm0,31c-6.16,0-11.28-4.56-11.28-11.6A10.92,10.92,0,0,1,83.52,33.61c6.24,0,11.36,4.4,11.36,11.28C94.88,51.93,89.76,56.49,83.52,56.49Z"/><path class="cls-2" d="M165.45,26.33H158.8a1,1,0,0,0-1,.67l-7.54,21.79a1,1,0,0,1-1.89,0L141,27a1,1,0,0,0-.94-.68h-6.25a1,1,0,0,0-.95.68l-7.46,21.76a1,1,0,0,1-1.89,0L116,27a1,1,0,0,0-.94-.68h-6.64a1,1,0,0,0-.94,1.35L120.8,63a1,1,0,0,0,.93.65h5.32A1,1,0,0,0,128,63l8-23.12a1,1,0,0,1,1.88,0L146.17,63a1,1,0,0,0,.94.66h5.39a1,1,0,0,0,.94-.66l12.95-35.36A1,1,0,0,0,165.45,26.33Z"/><path class="cls-2" d="M218.4,25.53a13.49,13.49,0,0,0-11.64,5.94,1,1,0,0,1-1.71-.06c-2.19-3.76-5.74-5.88-11-5.88-2.41,0-7.06.8-10,3.92a1,1,0,0,1-1.72-.69V27.33a1,1,0,0,0-1-1h-6.24a1,1,0,0,0-1,1V62.69a1,1,0,0,0,1,1h6.24a1,1,0,0,0,1-1V43.61c0-7.28,4.64-10,9.44-10,4.4,0,7.52,3.36,7.6,9.12v20a1,1,0,0,0,1,1h6.24a1,1,0,0,0,1-1V43.61c0-6,3.6-10,9-10,4.8,0,7.92,3.44,7.92,9.28v19.8a1,1,0,0,0,1,1h6.24a1,1,0,0,0,1-1V42.17C232.8,31.53,227.6,25.53,218.4,25.53Z"/><path class="cls-2" d="M248,6a5.37,5.37,0,0,0-5.52,5.2,5.37,5.37,0,0,0,5.52,5.2A5.21,5.21,0,1,0,248,6Z"/><rect class="cls-2" x="243.92" y="26.33" width="8.16" height="37.36" rx="1"/><path class="cls-2" d="M283.28,25.53a13.9,13.9,0,0,0-9.71,3.95,1,1,0,0,1-1.73-.67V27.33a1,1,0,0,0-1-1H264.6a1,1,0,0,0-1,1V62.69a1,1,0,0,0,1,1h6.24a1,1,0,0,0,1-1V43.61c0-7.36,4.72-10,9.6-10s7.84,3.36,7.84,9.28v19.8a1,1,0,0,0,1,1h6.24a1,1,0,0,0,1-1V41.93C297.52,31.37,292.32,25.53,283.28,25.53Z"/><path class="cls-2" d="M344.92,26.33h-6.08a1,1,0,0,0-1,1v1.61a1,1,0,0,1-1.7.71,15.84,15.84,0,0,0-10.94-4.12c-10.08,0-18.88,7.68-18.88,19.6s8.8,19.36,18.88,19.36a15.91,15.91,0,0,0,10.76-4,1,1,0,0,1,1.72.78c-.88,10.18-5.41,13.37-12.32,13.37a12.11,12.11,0,0,1-10.06-5.5,1,1,0,0,0-1.26-.34c-1.41.7-3.58,1.87-5,2.59a1,1,0,0,0-.43,1.38,19.2,19.2,0,0,0,16.77,9.55c12.56,0,20.56-7,20.56-24.16V27.33A1,1,0,0,0,344.92,26.33ZM326.16,56.57A11.05,11.05,0,0,1,314.8,45.05a11.19,11.19,0,0,1,11.36-11.52c6.16,0,11.52,4.08,11.52,11.52A11.4,11.4,0,0,1,326.16,56.57Z"/><path class="cls-3" d="M420.48,42.29c-5.69-3.25-14.42-1.6-19,.77a1,1,0,0,0-.51,1,19.28,19.28,0,0,1-.19,6.29,20,20,0,0,1-1.15,3.87,1,1,0,0,0,1.06,1.35,27,27,0,0,1,11.9,1.64l.57.23c.41.16.8.33,1.16.51a1,1,0,0,0,1.42-1c-1.12-7.25,1.94-11,4.83-12.93A1,1,0,0,0,420.48,42.29Z"/></svg>