<svg id="Layer_1" data-name="Layer 1" xmlns="http://www.w3.org/2000/svg" viewBox="0 0 133 147.05"><defs><style>.cls-1{fill:#c4c4c4;}.cls-2{fill:#7c7c7c;}.cls-3{fill:#ff8de1;}.cls-4{fill:#fff;}.cls-5{fill:#ffd400;}.cls-6{fill:#06aff2;}</style></defs><polygon class="cls-1" points="99.2 2 3 2.06 2 131.72 36.56 145 131 145 131 13.95 99.2 2"/><polygon class="cls-2" points="105 117.17 74 104.17 74.08 117.17 105 117.17"/><path class="cls-2" d="M105,119.17H74.08a2,2,0,0,1-2-2l-.08-13a2,2,0,0,1,.89-1.67,2,2,0,0,1,1.88-.18l31,13a2,2,0,0,1-.77,3.84Zm-28.93-4h19l-19-8Z"/><polygon class="cls-3" points="105.41 117.38 105.41 71.86 92.57 91.89 74.08 83.05 74.08 103.52 105.41 117.38"/><polygon class="cls-4" points="66.99 37.93 35.06 25.34 2.56 36.75 36.56 49.87 66.99 37.93"/><polygon class="cls-4" points="130.58 13.95 99.2 2.06 69.68 12.74 101.2 25.03 130.58 13.95"/><polygon class="cls-5" points="69.68 12.74 54.88 32.98 86.79 46.08 101.2 25.03 69.68 12.74"/><polygon class="cls-4" points="131 107 105.41 117.38 105.41 71.86 92.57 91.89 74.08 83.05 74.08 131.05 36.56 145.05 36.56 49.87 66.99 37.93 86.79 46.08 101.2 25.03 130.58 13.95 131 107"/><polygon class="cls-6" points="36.56 145.05 2.02 131.72 2.56 36.75 36.56 49.87 36.56 145.05"/><path d="M131.7,12.08,99.9.13A1.85,1.85,0,0,0,99.2,0h0L3,.06a2,2,0,0,0-2,2L.74,36s0,0,0,0a1.15,1.15,0,0,0-.06.17,2,2,0,0,0-.09.49s0,0,0,.05h0L.08,121.88,0,131.7a2,2,0,0,0,1.28,1.88l4.35,1.67,30.21,11.67.09,0,.1,0a1.89,1.89,0,0,0,.53.08A2.1,2.1,0,0,0,37,147h94a2,2,0,0,0,2-2V14A2,2,0,0,0,131.7,12.08ZM129,105.66l-21.59,8.75V71.86a2,2,0,0,0-3.68-1.08L91.84,89.32l-16.9-8.07a2,2,0,0,0-1.92.11,2,2,0,0,0-.94,1.69v46.62l-33.52,12.5V51.24L50,46.75l17-6.66L85.8,47.83l.23.1a2.42,2.42,0,0,0,.36.1l.11,0,.26,0h.09a2.2,2.2,0,0,0,.36,0l.09,0a2.74,2.74,0,0,0,.4-.15l0,0a1.73,1.73,0,0,0,.31-.22l.09-.07a1.81,1.81,0,0,0,.29-.33l14-20.53,10.24-3.86,15.86-6Zm-52.91-3.44v-16l15.63,7.47A2,2,0,0,0,94.25,93l9.15-14.27V114.3ZM58,32.1,70.39,15.16,88.7,22.3,98.13,26,86.88,42.4l-.82,1.21-18.3-7.53h0l-1.62-.64ZM99.18,4.19,124.92,14l-23.71,8.94L75.37,12.81ZM61.53,37.92l-25,9.81L8.35,36.83,35,27.47ZM4,130.35l0-8.35.63-82.28L34.56,51.24v90.85l-28-10.75ZM87.94,4,69,10.86l0,0a2.16,2.16,0,0,0-.47.26l-.06,0a1.59,1.59,0,0,0-.36.37l-14,19.13L35.79,23.48a2,2,0,0,0-1.39,0L4.76,33.86,5,4.06ZM47.78,143l27-10.07a2,2,0,0,0,1.3-1.88V106.59L104.6,119.2l.07,0,.16,0,.29.07h.16l.12,0,.12,0a1.64,1.64,0,0,0,.32,0l.21,0,.11,0L129,110v33Z"/></svg>